<?xml version="1.0" standalone="no"?>
<!DOCTYPE svg PUBLIC "-//W3C//DTD SVG 20010904//EN"
 "http://www.w3.org/TR/2001/REC-SVG-20010904/DTD/svg10.dtd">
<svg version="1.0" xmlns="http://www.w3.org/2000/svg"
 width="500.000000pt" height="500.000000pt" viewBox="0 0 500.000000 500.000000"
 preserveAspectRatio="xMidYMid meet">
<metadata>
Created by potrace 1.14, written by Peter Selinger 2001-2017
</metadata>
<g transform="translate(0.000000,500.000000) scale(0.100000,-0.100000)"
fill="#000000" stroke="none">
<path d="M0 2500 l0 -2500 2500 0 2500 0 0 2500 0 2500 -2500 0 -2500 0 0
-2500z m2595 1186 c69 -29 65 45 65 -1181 0 -1227 4 -1157 -65 -1189 -43 -21
-156 -21 -195 -1 -63 33 -60 -35 -60 1184 0 697 4 1119 10 1135 16 43 66 66
143 66 37 0 83 -6 102 -14z m-482 -290 c71 -29 67 28 67 -897 0 -822 0 -831
-21 -860 -43 -60 -146 -60 -189 1 -20 28 -20 42 -20 859 0 922 -4 867 65 897
39 17 58 17 98 0z m872 0 c68 -29 65 15 65 -896 0 -909 3 -862 -66 -895 -74
-35 -156 11 -169 96 -3 24 -5 400 -3 834 3 746 4 792 21 819 19 28 67 55 100
56 10 0 33 -6 52 -14z m-1565 -61 c16 -8 34 -24 40 -34 7 -13 10 -285 10 -805
l0 -785 -22 -26 c-14 -15 -38 -28 -60 -32 -33 -5 -41 -2 -73 30 l-35 35 2 785
c3 769 3 785 23 807 36 40 71 48 115 25z m2270 -20 l25 -25 0 -791 0 -791 -34
-30 c-28 -25 -39 -29 -70 -24 -21 3 -45 16 -58 31 l-23 26 0 785 c0 517 3 792
10 804 28 53 105 60 150 15z m-1903 -249 l28 -24 3 -519 c1 -285 0 -529 -3
-541 -3 -13 -18 -35 -32 -48 -31 -29 -96 -33 -132 -8 -50 35 -51 47 -51 574 0
527 1 539 51 574 36 25 102 21 136 -8z m1566 4 c15 -12 31 -38 37 -58 14 -50
14 -974 0 -1024 -15 -51 -52 -78 -107 -78 -37 0 -50 5 -74 31 l-29 31 0 530 0
530 29 29 c37 37 104 41 144 9z m-2218 -181 c19 -19 20 -35 23 -373 2 -221 -1
-363 -7 -379 -6 -15 -26 -34 -45 -44 -29 -14 -39 -14 -66 -3 -58 24 -60 34
-60 409 0 191 4 351 10 365 20 54 102 69 145 25z m2830 19 c53 -24 55 -38 55
-407 0 -229 -4 -348 -11 -365 -6 -13 -26 -32 -44 -42 -28 -15 -37 -16 -64 -4
-62 25 -61 20 -61 410 0 383 1 389 54 410 29 12 41 12 71 -2z m-3119 -139 c17
-19 19 -41 22 -237 2 -119 1 -231 -3 -250 -12 -67 -76 -93 -126 -53 l-24 19 0
250 c0 232 1 251 19 271 26 29 86 29 112 0z m3416 4 c17 -15 18 -37 18 -270 0
-240 -1 -254 -20 -273 -25 -25 -71 -26 -101 -1 l-24 19 0 250 c0 232 1 251 19
271 23 26 81 28 108 4z m-3666 -101 c27 -17 34 -56 34 -175 0 -111 -2 -127
-21 -151 -25 -31 -61 -34 -89 -6 -18 18 -20 33 -20 158 0 108 3 142 16 160 15
22 57 30 80 14z m3880 -6 c17 -13 19 -27 19 -165 0 -138 -2 -151 -20 -165 -25
-19 -56 -20 -81 -2 -17 13 -19 27 -19 166 0 139 2 153 19 166 11 8 29 14 41
14 12 0 30 -6 41 -14z"/>
</g>
</svg>
